<svg xmlns="http://www.w3.org/2000/svg" version="1.1" xmlns:xlink="http://www.w3.org/1999/xlink" xmlns:svgjs="http://svgjs.com/svgjs" width="1920" height="1080" preserveAspectRatio="none" viewBox="0 0 1920 1080"><g mask="url(&quot;#SvgjsMask1034&quot;)" fill="none"><rect width="1920" height="1080" x="0" y="0" fill="url(#SvgjsLinearGradient1035)"></rect><path d="M1920 0L995.66 0L1920 215.16z" fill="rgba(255, 255, 255, .1)"></path><path d="M995.66 0L1920 215.16L1920 672.28L615.41 0z" fill="rgba(255, 255, 255, .075)"></path><path d="M615.4099999999999 0L1920 672.28L1920 904.8499999999999L427.05999999999983 0z" fill="rgba(255, 255, 255, .05)"></path><path d="M427.05999999999995 0L1920 904.8499999999999L1920 990.78L294.3499999999999 0z" fill="rgba(255, 255, 255, .025)"></path><path d="M0 1080L907.62 1080L0 787.12z" fill="rgba(0, 0, 0, .1)"></path><path d="M0 787.12L907.62 1080L1283.87 1080L0 414.42z" fill="rgba(0, 0, 0, .075)"></path><path d="M0 414.4200000000001L1283.87 1080L1675.27 1080L0 413.9100000000001z" fill="rgba(0, 0, 0, .05)"></path><path d="M0 413.9100000000001L1675.27 1080L1726.85 1080L0 222.9600000000001z" fill="rgba(0, 0, 0, .025)"></path></g><defs><mask id="SvgjsMask1034"><rect width="1920" height="1080" fill="#ffffff"></rect></mask><linearGradient x1="10.94%" y1="119.44%" x2="89.06%" y2="-19.44%" gradientUnits="userSpaceOnUse" id="SvgjsLinearGradient1035"><stop stop-color="#0e2a47" offset="0"></stop><stop stop-color="rgba(102, 0, 181, 1)" offset="1"></stop></linearGradient></defs></svg>