<svg xmlns="http://www.w3.org/2000/svg" version="1.1" xmlns:xlink="http://www.w3.org/1999/xlink" xmlns:svgjs="http://svgjs.com/svgjs" width="1920" height="1080" preserveAspectRatio="none" viewBox="0 0 1920 1080"><g mask="url(&quot;#SvgjsMask2046&quot;)" fill="none"><rect width="1920" height="1080" x="0" y="0" fill="url(#SvgjsLinearGradient2047)"></rect><path d="M0 0L43.23 0L0 192.86z" fill="rgba(255, 255, 255, .1)"></path><path d="M0 192.86L43.23 0L934.32 0L0 363.17z" fill="rgba(255, 255, 255, .075)"></path><path d="M0 363.17L934.32 0L1229.13 0L0 743.1z" fill="rgba(255, 255, 255, .05)"></path><path d="M0 743.1L1229.13 0L1602.5700000000002 0L0 797.53z" fill="rgba(255, 255, 255, .025)"></path><path d="M1920 1080L1788.23 1080L1920 677.12z" fill="rgba(0, 0, 0, .1)"></path><path d="M1920 677.12L1788.23 1080L879.0500000000001 1080L1920 616.76z" fill="rgba(0, 0, 0, .075)"></path><path d="M1920 616.76L879.05 1080L563.76 1080L1920 479.89z" fill="rgba(0, 0, 0, .05)"></path><path d="M1920 479.89L563.76 1080L409.66999999999996 1080L1920 138.33999999999997z" fill="rgba(0, 0, 0, .025)"></path></g><defs><mask id="SvgjsMask2046"><rect width="1920" height="1080" fill="#ffffff"></rect></mask><linearGradient x1="10.94%" y1="-19.44%" x2="89.06%" y2="119.44%" gradientUnits="userSpaceOnUse" id="SvgjsLinearGradient2047"><stop stop-color="#0e2a47" offset="0"></stop><stop stop-color="rgba(255, 0, 164, 0.39)" offset="0.98"></stop><stop stop-color="rgba(255, 0, 76, 0.44)" offset="1"></stop></linearGradient></defs></svg>